<svg xmlns="http://www.w3.org/2000/svg" version="1.1" xmlns:xlink="http://www.w3.org/1999/xlink" xmlns:svgjs="http://svgjs.dev/svgjs" width="1500" height="1500" viewBox="0 0 1500 1500"><g transform="matrix(1,0,0,1,-0.21332335329316265,-0.21332335329350371)"><svg viewBox="0 0 334 334" data-background-color="#1f2d5a" preserveAspectRatio="xMidYMid meet" height="1500" width="1500" xmlns="http://www.w3.org/2000/svg" xmlns:xlink="http://www.w3.org/1999/xlink"><g id="tight-bounds" transform="matrix(1,0,0,1,0.04749999999998522,0.04750000000001364)"><svg viewBox="0 0 333.90454557049503 333.90454557049503" height="333.90454557049503" width="333.90454557049503"><g><svg></svg></g><g><svg viewBox="0 0 333.90454557049503 333.90454557049503" height="333.90454557049503" width="333.90454557049503"><g><path d="M0 166.952c0-92.205 74.747-166.952 166.952-166.952 92.205 0 166.952 74.747 166.953 166.952 0 92.205-74.747 166.952-166.953 166.953-92.205 0-166.952-74.747-166.952-166.953zM166.952 316.63c82.665 0 149.677-67.013 149.678-149.678 0-82.665-67.013-149.677-149.678-149.677-82.665 0-149.677 67.013-149.677 149.677 0 82.665 67.013 149.677 149.677 149.678z" data-fill-palette-color="tertiary" fill="#fbfbfb" stroke="transparent"></path><ellipse rx="160.27418187383762" ry="160.27418187383762" cx="166.95227278524752" cy="166.95227278524752" fill="#fbfbfb" stroke="transparent" stroke-width="0" fill-opacity="1" data-fill-palette-color="tertiary"></ellipse></g><g transform="matrix(1,0,0,1,112.38858810759277,71.17305217166896)"><svg viewBox="0 0 109.1273693553095 191.55844122715712" height="191.55844122715712" width="109.1273693553095"><g><svg viewBox="0 0 109.1273693553095 191.55844122715712" height="191.55844122715712" width="109.1273693553095"><g><svg viewBox="0 0 109.1273693553095 191.55844122715712" height="191.55844122715712" width="109.1273693553095"><g><svg viewBox="0 0 109.1273693553095 191.55844122715712" height="191.55844122715712" width="109.1273693553095"><g id="textblocktransform"><svg viewBox="0 0 109.1273693553095 191.55844122715712" height="191.55844122715712" width="109.1273693553095" id="textblock"><g><svg viewBox="0 0 109.1273693553095 191.55844122715712" height="191.55844122715712" width="109.1273693553095"><g transform="matrix(1,0,0,1,0,0)"><svg width="109.1273693553095" viewBox="3.392434908337 -31.8 18.457565091663 32.400000000000006" height="191.55844122715712" data-palette-color="#1f2d5a"><path d="M7.25-25.4Q7.25-23.45 8.2-22 9.15-20.55 10.5-19.58 11.85-18.6 14.3-17.1L14.3-17.1Q16.9-15.55 18.35-14.5 19.8-13.45 20.83-11.83 21.85-10.2 21.85-7.95L21.85-7.95Q21.85-5.55 20.65-3.6 19.45-1.65 17.13-0.53 14.8 0.6 11.55 0.6L11.55 0.6Q7.7 0.6 4.5-1.15L4.5-1.15Q4.25-1.3 4.17-1.5 4.1-1.7 4.05-2.1L4.05-2.1 3.4-8.9Q3.35-9.1 3.63-9.15 3.9-9.2 3.95-9L3.95-9Q4.7-5.45 6.9-2.83 9.1-0.2 12.7-0.2L12.7-0.2Q15.2-0.2 16.93-1.58 18.65-2.95 18.65-5.95L18.65-5.95Q18.65-8.2 17.65-9.85 16.65-11.5 15.23-12.58 13.8-13.65 11.35-15.1L11.35-15.1Q8.95-16.55 7.58-17.6 6.2-18.65 5.25-20.25 4.3-21.85 4.3-24L4.3-24Q4.3-26.5 5.63-28.28 6.95-30.05 9.08-30.93 11.2-31.8 13.6-31.8L13.6-31.8Q16.55-31.8 19.45-30.6L19.45-30.6Q20.2-30.35 20.2-29.75L20.2-29.75 20.55-24.05Q20.55-23.8 20.28-23.8 20-23.8 19.95-24L19.95-24Q19.6-26.6 17.85-28.83 16.1-31.05 12.8-31.05L12.8-31.05Q10-31.05 8.63-29.43 7.25-27.8 7.25-25.4L7.25-25.4Z" opacity="1" transform="matrix(1,0,0,1,0,0)" fill="#1f2d5a" class="wordmark-text-0" data-fill-palette-color="quaternary" id="text-0"></path></svg></g></svg></g></svg></g></svg></g><g></g></svg></g></svg></g></svg></g></svg></g><defs></defs></svg><rect width="333.90454557049503" height="333.90454557049503" fill="none" stroke="none" visibility="hidden"></rect></g></svg></g></svg>